<svg xmlns="http://www.w3.org/2000/svg" viewBox="0 0 768 1024" role="img" aria-label="袁军牌背">
  <defs>
    <radialGradient id="bg"><stop stop-color="#d8c99f"/><stop offset="1" stop-color="#8d7549"/></radialGradient>
    <pattern id="cloud" width="90" height="45" patternUnits="userSpaceOnUse"><path d="M2 28c16-22 34-22 50 0 11-12 23-12 36 0" fill="none" stroke="#3f3323" stroke-opacity=".12" stroke-width="4"/></pattern>
  </defs>
  <rect x="20" y="20" width="728" height="984" rx="28" fill="#3c3021" stroke="#241e18" stroke-width="18"/>
  <rect x="38" y="38" width="692" height="948" rx="18" fill="url(#bg)" stroke="#c9a95d" stroke-width="7"/>
  <rect x="58" y="58" width="652" height="908" rx="10" fill="url(#cloud)" stroke="#4b3b27" stroke-width="3"/>
  <path d="M384 142c139 78 225 201 225 370s-86 292-225 370c-139-78-225-201-225-370s86-292 225-370Z" fill="#4a3925" stroke="#ddc078" stroke-width="12"/>
  <path d="M384 190c109 69 176 174 176 322s-67 253-176 322c-109-69-176-174-176-322s67-253 176-322Z" fill="none" stroke="#efe2be" stroke-width="5"/>
  <circle cx="384" cy="512" r="148" fill="#e6d7af" stroke="#6b512d" stroke-width="10"/>
  <circle cx="384" cy="512" r="122" fill="#5a4328" stroke="#ba9852" stroke-width="4"/>
  <text x="384" y="588" fill="#efe2be" font-family="Songti SC, STSong, serif" font-size="210" font-weight="700" text-anchor="middle">袁</text>
  <path d="M96 96h114M96 96v114M672 96H558M672 96v114M96 928h114M96 928V814M672 928H558M672 928V814" fill="none" stroke="#6b512d" stroke-width="9"/>
</svg>
