<svg xmlns="http://www.w3.org/2000/svg" viewBox="0 0 1200 220" role="img" aria-label="曹军军列底板">
  <defs>
    <linearGradient id="cao-row" x1="0" y1="0" x2="1" y2="0">
      <stop stop-color="#11110f" stop-opacity=".92"/>
      <stop offset=".18" stop-color="#26231e" stop-opacity=".76"/>
      <stop offset=".82" stop-color="#26231e" stop-opacity=".76"/>
      <stop offset="1" stop-color="#11110f" stop-opacity=".92"/>
    </linearGradient>
    <pattern id="cao-cuts" width="42" height="42" patternUnits="userSpaceOnUse">
      <path d="m-8 34 42-42M8 50 50 8" stroke="#eadbb8" stroke-opacity=".035" stroke-width="3"/>
    </pattern>
    <filter id="cao-rough" x="-3%" y="-12%" width="106%" height="124%">
      <feTurbulence type="fractalNoise" baseFrequency=".012 .08" numOctaves="2" seed="31" result="noise"/>
      <feDisplacementMap in="SourceGraphic" in2="noise" scale="3"/>
    </filter>
  </defs>
  <path d="M24 20h1152l14 16-9 148-15 16H34l-20-18 7-146Z" fill="url(#cao-row)" stroke="#0b0b09" stroke-width="9" filter="url(#cao-rough)"/>
  <path d="M38 37h1124l8 10-6 125-11 10H48l-12-10 4-125Z" fill="url(#cao-cuts)" stroke="#9f302b" stroke-opacity=".78" stroke-width="4"/>
  <path d="M74 52h1052M74 168h1052" stroke="#c3aa78" stroke-opacity=".42" stroke-width="2" stroke-dasharray="148 13 31 10"/>
  <g fill="#a6322c" stroke="#d1b679" stroke-width="2">
    <path d="M28 110 53 81l25 29-25 29Z"/>
    <path d="m1172 110-25-29-25 29 25 29Z"/>
  </g>
</svg>
