<svg xmlns="http://www.w3.org/2000/svg" viewBox="0 0 320 320" role="img" aria-label="小局失败残墨印底板">
  <defs>
    <filter id="ink-warp" x="-25%" y="-25%" width="150%" height="150%">
      <feTurbulence type="fractalNoise" baseFrequency=".022" numOctaves="4" seed="97" result="n"/>
      <feDisplacementMap in="SourceGraphic" in2="n" scale="12"/>
    </filter>
  </defs>
  <g filter="url(#ink-warp)">
    <path d="M38 157c8-68 54-112 119-121 58 8 103 47 120 103-1 74-39 124-112 143-70-7-115-48-127-125Z" fill="#171612" fill-opacity=".9"/>
    <path d="M76 85c31-33 101-45 150-5M68 226c43 34 111 37 167-8" fill="none" stroke="#bda77b" stroke-opacity=".35" stroke-width="8" stroke-dasharray="83 18 27 13"/>
    <path d="M92 76h146l-18 166H78Z" fill="none" stroke="#d4c196" stroke-opacity=".52" stroke-width="9"/>
    <path d="m79 234 176 20M68 258l162 24M100 48 76 23M213 49l34-22" stroke="#171612" stroke-opacity=".78" stroke-width="13" stroke-linecap="round"/>
  </g>
</svg>
